HIERARCHY
ROOT Hips
{
	OFFSET 0.000000 0.000000 0.000000
	CHANNELS 6 Xposition Yposition Zposition Zrotation Yrotation Xrotation 
	JOINT LHipJoint
	{
		OFFSET 0.000000 0.000000 0.000000
		CHANNELS 3 Zrotation Yrotation Xrotation
		JOINT LeftUpLeg
		{
			OFFSET 1.363060 -1.794630 0.839290
			CHANNELS 3 Zrotation Yrotation Xrotation
			JOINT LeftLeg
			{
				OFFSET 2.448110 -6.726130 0.000000
				CHANNELS 3 Zrotation Yrotation Xrotation
				JOINT LeftFoot
				{
					OFFSET 2.562200 -7.039590 0.000000
					CHANNELS 3 Zrotation Yrotation Xrotation
					JOINT LeftToeBase
					{
						OFFSET 0.157640 -0.433110 2.322550
						CHANNELS 3 Zrotation Yrotation Xrotation
						End Site
						{
							OFFSET 0.000000 0.000000 0.000000
						}
					}
				}
			}
		}
	}
	JOINT RHipJoint
	{
		OFFSET 0.000000 0.000000 0.000000
		CHANNELS 3 Zrotation Yrotation Xrotation
		JOINT RightUpLeg
		{
			OFFSET -1.305520 -1.794630 0.839290
			CHANNELS 3 Zrotation Yrotation Xrotation
			JOINT RightLeg
			{
				OFFSET -2.542530 -6.985550 0.000000
				CHANNELS 3 Zrotation Yrotation Xrotation
				JOINT RightFoot
				{
					OFFSET -2.568260 -7.056230 0.000000
					CHANNELS 3 Zrotation Yrotation Xrotation
					JOINT RightToeBase
					{
						OFFSET -0.164730 -0.452590 2.363150
						CHANNELS 3 Zrotation Yrotation Xrotation
						End Site
						{
							OFFSET 0.000000 0.000000 0.000000
						}
					}
				}
			}
		}
	}
}
MOTION
Frames: 31
Frame Time: 0.008333
3.517011 17.243076 1.092483 -173.766850 -77.088544 -173.506579 -11.628722 2.304521 0.581687 -5.077190 22.143562 -17.006900 -2.790542 -1.150698 -3.935217 0.655992 5.215347 3.147786 1.098300 -0.000000 -35.324400 9.260539 -1.336943 3.584670 3.100613 -0.088165 -13.897584 2.921079 1.980990 -3.681362 0.355033 -0.425786 4.021120 -0.891500 -0.000000 -45.735800
3.512906 17.243438 1.088596 -174.143851 -77.031182 -173.133453 -11.637307 2.288793 0.551191 -5.130898 22.189039 -16.979248 -2.797674 -1.158423 -3.875732 0.661337 5.287392 3.121874 1.109501 0.000000 -35.285100 9.255988 -1.357897 3.602210 3.026450 -0.054348 -13.907535 2.912033 1.970364 -3.697732 0.358063 -0.355240 4.012909 -0.869700 -0.000000 -45.756200
3.510221 17.243407 1.084208 -174.537344 -76.887514 -172.825903 -11.647765 2.296076 0.544469 -5.155767 22.251004 -16.882358 -2.794783 -1.156015 -3.811662 0.673571 5.400191 3.080688 1.124800 0.000000 -35.240100 9.251439 -1.373693 3.625926 2.950417 -0.008161 -13.865006 2.904899 1.960189 -3.669006 0.365696 -0.265570 3.985865 -0.845101 -0.000000 -45.786100
3.508924 17.242857 1.079522 -174.899452 -76.724890 -172.568084 -11.656319 2.297870 0.521170 -5.152781 22.302785 -16.736463 -2.784907 -1.149383 -3.746428 0.690171 5.545056 3.028102 1.143800 -0.000000 -35.191800 9.250545 -1.381064 3.626536 2.875670 0.047144 -13.794761 2.895286 1.944597 -3.605532 0.372806 -0.174693 3.933750 -0.820099 0.000000 -45.825800
3.508758 17.241831 1.074667 -175.204908 -76.579842 -172.350052 -11.660647 2.281749 0.463640 -5.125304 22.333157 -16.558671 -2.770550 -1.142049 -3.680834 0.708788 5.709588 2.967135 1.164900 0.000000 -35.141900 9.255543 -1.379891 3.591878 2.804972 0.109407 -13.711725 2.881388 1.921576 -3.515066 0.376789 -0.095502 3.855190 -0.797000 -0.000000 -45.872500
3.509571 17.240392 1.069788 -175.458148 -76.493906 -172.176496 -11.661582 2.247873 0.379740 -5.076960 22.339177 -16.355282 -2.754674 -1.138940 -3.614426 0.726594 5.878706 2.902598 1.186600 -0.000000 -35.091900 9.264785 -1.380842 3.536161 2.738496 0.171475 -13.615855 2.861977 1.890443 -3.405509 0.376412 -0.036253 3.751224 -0.777301 0.000000 -45.922799
3.511059 17.238621 1.064997 -175.684929 -76.473036 -172.053790 -11.662159 2.208806 0.295515 -5.011363 22.322245 -16.120685 -2.737368 -1.141155 -3.555441 0.743472 6.050983 2.840304 1.209300 0.000000 -35.042701 9.274422 -1.392077 3.483107 2.674635 0.226970 -13.497034 2.838271 1.853763 -3.280674 0.372831 0.004805 3.626983 -0.761199 0.000000 -45.974400
3.512802 17.236648 1.060409 -175.895496 -76.498454 -171.981226 -11.663980 2.173548 0.225013 -4.934256 22.292206 -15.860510 -2.718791 -1.146761 -3.507848 0.759517 6.221821 2.782476 1.232300 -0.000000 -34.997200 9.282431 -1.413238 3.443105 2.613345 0.274665 -13.355668 2.812638 1.814915 -3.144644 0.367591 0.032473 3.489811 -0.748300 -0.000000 -46.025300
3.514256 17.234541 1.056029 -176.081540 -76.548743 -171.954843 -11.667164 2.144966 0.169964 -4.855078 22.274730 -15.606325 -2.702265 -1.153437 -3.457724 0.772647 6.368221 2.724339 1.250600 0.000000 -34.958500 9.287674 -1.441894 3.420183 2.558841 0.320147 -13.206008 2.787633 1.777351 -3.004939 0.361722 0.047887 3.348588 -0.739000 0.000000 -46.070300
3.515200 17.232425 1.051901 -176.262669 -76.603987 -171.951094 -11.672228 2.123408 0.127333 -4.772522 22.254795 -15.330668 -2.684318 -1.161812 -3.438668 0.785954 6.518589 2.680061 1.271200 -0.000001 -34.924300 9.291785 -1.473606 3.404985 2.506841 0.353790 -13.045377 2.764320 1.740885 -2.866577 0.357177 0.072284 3.210462 -0.727700 -0.000000 -46.116499
3.514906 17.230396 1.047936 -176.416843 -76.651369 -171.969381 -11.678794 2.108801 0.097167 -4.698338 22.262740 -15.082970 -2.670298 -1.171036 -3.423849 0.796276 6.642748 2.639772 1.287400 0.000000 -34.900300 9.293139 -1.509094 3.405400 2.463912 0.386639 -12.898690 2.745050 1.709134 -2.741566 0.354202 0.102409 3.084669 -0.715700 -0.000000 -46.156400
3.513060 17.228539 1.044100 -176.549549 -76.678048 -171.997720 -11.687128 2.100654 0.077167 -4.634513 22.303030 -14.862864 -2.660435 -1.181589 -3.419653 0.803923 6.744732 2.606650 1.300600 -0.000000 -34.886400 9.292040 -1.547641 3.419948 2.429434 0.416782 -12.770822 2.730818 1.682623 -2.636435 0.353894 0.150471 2.977487 -0.699800 -0.000000 -46.192801
3.509470 17.226900 1.040299 -176.656546 -76.675148 -172.032831 -11.697272 2.098207 0.065978 -4.584330 22.387867 -14.684709 -2.656423 -1.193495 -3.418409 0.808083 6.817585 2.578177 1.309200 0.000000 -34.883599 9.287994 -1.589720 3.450839 2.405504 0.447263 -12.670531 2.722651 1.662464 -2.558084 0.356862 0.221516 2.893827 -0.678800 -0.000000 -46.225200
3.504049 17.225544 1.036475 -176.749245 -76.634310 -172.062039 -11.709334 2.100670 0.061997 -4.546155 22.506601 -14.532712 -2.656195 -1.207494 -3.435180 0.810846 6.880748 2.560221 1.317600 0.000000 -34.889900 9.281732 -1.634162 3.494347 2.388933 0.475240 -12.595754 2.720531 1.647878 -2.508179 0.363623 0.326382 2.836315 -0.649799 0.000000 -46.258400
3.496802 17.224411 1.032555 -176.815905 -76.554650 -172.092566 -11.723173 2.106908 0.064028 -4.521471 22.673874 -14.426793 -2.662087 -1.222880 -3.450254 0.810429 6.917424 2.544315 1.321600 -0.000001 -34.907000 9.272339 -1.682024 3.553727 2.383110 0.506867 -12.552615 2.724815 1.639701 -2.489780 0.374103 0.460462 2.805840 -0.614100 0.000000 -46.289200
3.488018 17.223486 1.028529 -176.860325 -76.436155 -172.122990 -11.738631 2.115631 0.070115 -4.507320 22.882199 -14.357979 -2.672738 -1.239467 -3.466603 0.807911 6.936617 2.531002 1.323000 0.000000 -34.933700 9.260118 -1.732174 3.625811 2.386590 0.542775 -12.536889 2.734867 1.636987 -2.500593 0.388024 0.624119 2.800385 -0.571500 0.000000 -46.319100
3.477824 17.222732 1.024397 -176.880203 -76.282858 -172.155921 -11.755557 2.125854 0.078881 -4.500479 23.124351 -14.320454 -2.687203 -1.256781 -3.482091 0.803791 6.941599 2.518221 1.322000 0.000000 -34.968600 9.245187 -1.783809 3.707972 2.398748 0.584575 -12.543901 2.749835 1.638882 -2.536579 0.405084 0.812192 2.816147 -0.523200 -0.000000 -46.348200
3.466941 17.222025 1.020208 -176.878740 -76.101820 -172.196736 -11.773568 2.136076 0.087766 -4.495655 23.391492 -14.304697 -2.704023 -1.273861 -3.494754 0.798662 6.936147 2.504344 1.318899 0.000000 -35.011200 9.227948 -1.835079 3.795560 2.418526 0.633421 -12.564918 2.768330 1.643974 -2.590777 0.424352 1.016773 2.847011 -0.471200 0.000000 -46.375700
3.455220 17.221398 1.015906 -176.857778 -75.902649 -172.237964 -11.792060 2.145597 0.097413 -4.493470 23.669043 -14.310274 -2.722260 -1.290553 -3.504390 0.793217 6.924995 2.489087 1.314600 -0.000000 -35.058100 9.208773 -1.884985 3.886691 2.443897 0.690644 -12.600130 2.789201 1.651732 -2.658724 0.444844 1.227771 2.888241 -0.418200 0.000000 -46.400000
3.443633 17.220725 1.011659 -176.818383 -75.695671 -172.291517 -11.810688 2.153190 0.104333 -4.485826 23.946594 -14.320992 -2.740031 -1.305537 -3.509724 0.787867 6.910229 2.470521 1.309200 -0.000001 -35.109799 9.188453 -1.931068 3.974506 2.473922 0.755496 -12.635624 2.810660 1.660248 -2.729515 0.465245 1.434548 2.930637 -0.366600 -0.000000 -46.420900
3.432384 17.219959 1.007531 -176.761094 -75.492542 -172.357744 -11.828922 2.158284 0.107954 -4.469623 24.208961 -14.328504 -2.755797 -1.318383 -3.512745 0.783305 6.896860 2.449137 1.303400 0.000000 -35.164000 9.167879 -1.971797 4.054666 2.506445 0.826594 -12.665519 2.831246 1.668382 -2.795389 0.484576 1.626570 2.967720 -0.318900 -0.000000 -46.437000
3.421547 17.219150 1.003485 -176.690393 -75.305074 -172.429113 -11.845777 2.160333 0.108866 -4.447769 24.447235 -14.339446 -2.769647 -1.328749 -3.508569 0.779320 6.881897 2.423631 1.296701 -0.000000 -35.218400 9.147655 -2.006237 4.126159 2.540160 0.903871 -12.692855 2.849912 1.675935 -2.851896 0.501189 1.792287 2.994092 -0.278100 -0.000000 -46.445900
3.411680 17.218237 0.999658 -176.607874 -75.143199 -172.511692 -11.860841 2.158982 0.105473 -4.414270 24.646865 -14.336731 -2.779473 -1.336244 -3.503100 0.776763 6.872674 2.395912 1.290600 -0.000001 -35.272201 9.129076 -2.032744 4.182983 2.573427 0.982858 -12.707132 2.865275 1.681297 -2.890162 0.514275 1.925252 3.003182 -0.245600 -0.000000 -46.448300
3.402939 17.217224 0.996072 -176.516529 -75.015915 -172.602206 -11.873306 2.153987 0.098045 -4.371089 24.802025 -14.323484 -2.785316 -1.340761 -3.494001 0.775437 6.867209 2.365736 1.284800 -0.000000 -35.323800 9.112892 -2.050850 4.224024 2.605369 1.061267 -12.709897 2.876615 1.684159 -2.906399 0.522718 2.018497 2.991268 -0.222900 -0.000000 -46.443300
3.395496 17.216147 0.992739 -176.417822 -74.930039 -172.699851 -11.882617 2.145468 0.087175 -4.318398 24.905065 -14.297349 -2.786636 -1.342440 -3.482559 0.775585 6.867852 2.333942 1.279700 -0.000001 -35.372100 9.099929 -2.060397 4.247692 2.635170 1.134721 -12.700148 2.883486 1.684134 -2.897984 0.526258 2.069453 2.956149 -0.210699 -0.000000 -46.430401
3.389096 17.215059 0.989594 -176.312155 -74.889881 -172.800767 -11.888316 2.133503 0.073947 -4.259735 24.956545 -14.264960 -2.784177 -1.341572 -3.467310 0.776662 6.870578 2.301422 1.275100 -0.000000 -35.415100 9.090437 -2.062105 4.255153 2.663367 1.200684 -12.682683 2.885884 1.681262 -2.863630 0.524451 2.076481 2.897355 -0.209101 -0.000000 -46.409300
3.384116 17.213961 0.986695 -176.203223 -74.897794 -172.904950 -11.890149 2.118550 0.059070 -4.195550 24.953171 -14.223559 -2.777577 -1.338418 -3.449815 0.778951 6.878459 2.268877 1.271400 -0.000000 -35.453200 9.084912 -2.056306 4.245772 2.689732 1.254147 -12.656105 2.883873 1.675465 -2.804258 0.517882 2.042243 2.815697 -0.217500 0.000000 -46.381300
3.380379 17.212870 0.983968 -176.090741 -74.953300 -173.011306 -11.888127 2.101070 0.043853 -4.128429 24.898203 -14.177762 -2.767470 -1.333338 -3.429543 0.782091 6.889262 2.237333 1.268501 0.000000 -35.485500 9.083226 -2.044142 4.221282 2.715260 1.292009 -12.623291 2.877957 1.667090 -2.722329 0.506835 1.970089 2.714036 -0.235100 -0.000000 -46.346200
3.377861 17.211817 0.981404 -175.975771 -75.054581 -173.118363 -11.882462 2.081860 0.030046 -4.060780 24.794867 -14.131102 -2.754356 -1.326779 -3.406687 0.785944 6.902567 2.207254 1.266400 0.000001 -35.512601 9.085131 -2.026842 4.183613 2.740678 1.310187 -12.586204 2.868894 1.656777 -2.622778 0.492442 1.866011 2.596430 -0.260400 0.000000 -46.304700
3.376502 17.210835 0.978927 -175.858395 -75.198477 -173.227488 -11.873573 2.061207 0.018071 -3.993866 24.651613 -14.086579 -2.739114 -1.318977 -3.381026 0.789806 6.913664 2.180057 1.264600 -0.000000 -35.534400 9.090071 -2.005655 4.134980 2.767311 1.308197 -12.546577 2.857232 1.644763 -2.508126 0.475304 1.734231 2.466076 -0.292300 0.000000 -46.257699
3.376225 17.209955 0.976550 -175.738059 -75.380900 -173.340159 -11.862031 2.039652 0.008448 -3.928615 24.476446 -14.046507 -2.722529 -1.310169 -3.352354 0.793122 6.918843 2.156528 1.262500 0.000001 -35.551700 9.097503 -1.981780 4.077381 2.795994 1.284851 -12.504627 2.843619 1.631565 -2.383132 0.456295 1.579612 2.327281 -0.329900 0.000001 -46.205600
